{
	"asset":{
		"version":"2.0",
		"generator":"Created using the official Cinema 4D glTF Exporter 1.000x284978"
	},
	"scenes":[{
		"nodes":[0,
		1,
		2,
		3,
		4]
	}],
	"nodes":[{
		"name":"Camera.3",
		"translation":[0.0,
		-80.0,
		522.724365234375],
		"camera":0,
		"rotation":[-0.12360147386789322,
		0.0,
		0.0,
		-0.9923319220542908],
		"scale":[1.0,
		1.0,
		1.0]
	},
	{
		"name":"Camera.2",
		"translation":[333.48834228515627,
		48.14466857910156,
		130.02613830566407],
		"camera":1,
		"rotation":[-0.005658899899572134,
		-0.5914052724838257,
		0.004150466062128544,
		-0.8063439726829529],
		"scale":[1.0,
		1.0,
		1.0]
	},
	{
		"name":"Camera.1",
		"translation":[-299.5152282714844,
		33.31763458251953,
		282.30303955078127],
		"camera":2,
		"rotation":[0.03253579139709473,
		-0.34490060806274416,
		0.011963356286287308,
		0.93799889087677],
		"scale":[1.0,
		1.0,
		1.0]
	},
	{
		"name":"Camera",
		"translation":[0.0,
		51.0,
		733.0],
		"camera":3,
		"rotation":[0.0,
		0.0,
		0.0,
		-1.0],
		"scale":[1.0,
		1.0,
		1.0]
	},
	{
		"name":"SuperText Plus",
		"mesh":0,
		"translation":[0.0,
		55.0,
		0.0],
		"rotation":[0.0,
		0.0,
		0.0,
		-1.0],
		"scale":[1.0,
		1.0,
		1.0]
	}],
	"meshes":[{
		"name":"SuperText Plus",
		"primitives":[{
			"attributes":{
				"POSITION":1,
				"NORMAL":2,
				"TEXCOORD_0":3
			},
			"indices":0,
			"material":0
		}]
	}],
	"cameras":[{
		"type":"perspective",
		"perspective":{
			"znear":0.009999999776482582,
			"zfar":10000000000.0,
			"aspectRatio":1.7777777910232545,
			"yfov":0.3995964825153351
		}
	},
	{
		"type":"perspective",
		"perspective":{
			"znear":0.009999999776482582,
			"zfar":10000000000.0,
			"aspectRatio":1.7777777910232545,
			"yfov":0.3995964825153351
		}
	},
	{
		"type":"perspective",
		"perspective":{
			"znear":0.009999999776482582,
			"zfar":10000000000.0,
			"aspectRatio":1.7777777910232545,
			"yfov":0.3995964825153351
		}
	},
	{
		"type":"perspective",
		"perspective":{
			"znear":0.009999999776482582,
			"zfar":10000000000.0,
			"aspectRatio":1.7777777910232545,
			"yfov":0.3995964825153351
		}
	}],
	"accessors":[{
		"bufferView":0,
		"type":"SCALAR",
		"componentType":5123,
		"count":210774,
		"byteOffset":0,
		"min":[0],
		"max":[42068]
	},
	{
		"bufferView":1,
		"type":"VEC3",
		"componentType":5126,
		"count":42069,
		"byteOffset":0,
		"min":[-180.92544555664063,
		-54.34678268432617,
		-25.5],
		"max":[181.0388641357422,
		54.34678268432617,
		0.5]
	},
	{
		"bufferView":1,
		"type":"VEC3",
		"componentType":5126,
		"count":42069,
		"byteOffset":12,
		"min":[-1.0,
		-1.0,
		-1.0],
		"max":[1.0,
		1.0,
		1.0]
	},
	{
		"bufferView":1,
		"type":"VEC2",
		"componentType":5126,
		"count":42069,
		"byteOffset":24,
		"min":[0.02429264783859253,
		0.02429264783859253],
		"max":[0.9740933775901794,
		0.9757072925567627]
	}],
	"bufferViews":[{
		"buffer":0,
		"byteOffset":0,
		"byteLength":421548,
		"target":34963
	},
	{
		"buffer":0,
		"byteOffset":421548,
		"byteLength":1346208,
		"target":34962,
		"byteStride":32
	}],
	"buffers":[{
		"uri":"data:application/octet-stream;base64,",
		"byteLength":1767756
	}],
	"materials":[{
		"pbrMetallicRoughness":{
			"baseColorFactor":[0.2666666666666668,
			0.0,
			0.6,
			1.0],
			"metallicFactor":0.0,
			"roughnessFactor":0.5
		},
		"emissiveFactor":[0.0,
		0.0,
		0.0],
		"alphaMode":"OPAQUE",
		"doubleSided":false,
		"name":"Mat"
	}]
}